<svg xmlns="http://www.w3.org/2000/svg" viewBox="0 0 1600 760" width="1600" height="760" role="img"><defs><filter id="g"><feTurbulence type="fractalNoise" baseFrequency="0.85" numOctaves="3" result="n"/><feColorMatrix in="n" type="saturate" values="0"/></filter></defs><rect width="1600" height="760" fill="#15171c"/><rect width="1600" height="243" fill="#0d0e11"/><rect x="13.1" y="669.1" width="46.5" height="90.9" fill="#f3f4f1" opacity="0.12"/><rect x="85.8" y="660.7" width="46.5" height="99.3" fill="#f3f4f1" opacity="0.15"/><rect x="158.5" y="667.9" width="46.5" height="92.1" fill="#f3f4f1" opacity="0.17"/><rect x="231.3" y="662.4" width="46.5" height="97.6" fill="#f3f4f1" opacity="0.20"/><rect x="304.0" y="643.0" width="46.5" height="117.0" fill="#f3f4f1" opacity="0.22"/><rect x="376.7" y="630.5" width="46.5" height="129.5" fill="#f3f4f1" opacity="0.25"/><rect x="449.5" y="591.8" width="46.5" height="168.2" fill="#f3f4f1" opacity="0.28"/><rect x="522.2" y="560.6" width="46.5" height="199.4" fill="#f3f4f1" opacity="0.30"/><rect x="594.9" y="598.7" width="46.5" height="161.3" fill="#f3f4f1" opacity="0.33"/><rect x="667.6" y="562.1" width="46.5" height="197.9" fill="#f3f4f1" opacity="0.36"/><rect x="740.4" y="526.6" width="46.5" height="233.4" fill="#f3f4f1" opacity="0.38"/><rect x="813.1" y="470.3" width="46.5" height="289.7" fill="#f3f4f1" opacity="0.41"/><rect x="885.8" y="464.3" width="46.5" height="295.7" fill="#f3f4f1" opacity="0.43"/><rect x="958.5" y="437.5" width="46.5" height="322.5" fill="#f3f4f1" opacity="0.46"/><rect x="1031.3" y="413.9" width="46.5" height="346.1" fill="#f3f4f1" opacity="0.49"/><rect x="1104.0" y="422.3" width="46.5" height="337.7" fill="#f3f4f1" opacity="0.51"/><rect x="1176.7" y="334.1" width="46.5" height="425.9" fill="#f3f4f1" opacity="0.54"/><rect x="1249.5" y="337.8" width="46.5" height="422.2" fill="#f3f4f1" opacity="0.57"/><rect x="1322.2" y="364.4" width="46.5" height="395.6" fill="#c8f44f" opacity="1.00"/><rect x="1394.9" y="190.0" width="46.5" height="570.0" fill="#c8f44f" opacity="1.00"/><rect x="1467.6" y="209.7" width="46.5" height="550.3" fill="#c8f44f" opacity="1.00"/><rect x="1540.4" y="243.2" width="46.5" height="516.8" fill="#c8f44f" opacity="1.00"/><rect width="1600" height="760" filter="url(#g)" opacity="0.05"/></svg>