<svg xmlns="http://www.w3.org/2000/svg" viewBox="0 0 1600 760" width="1600" height="760" role="img"><defs><filter id="g"><feTurbulence type="fractalNoise" baseFrequency="0.85" numOctaves="3" result="n"/><feColorMatrix in="n" type="saturate" values="0"/></filter></defs><rect width="1600" height="760" fill="#15171c"/><circle cx="30.8" cy="23.8" r="1.6" fill="#f3f4f1" opacity="0.5"/><circle cx="92.3" cy="23.8" r="1.6" fill="#f3f4f1" opacity="0.5"/><circle cx="153.8" cy="23.8" r="1.6" fill="#f3f4f1" opacity="0.5"/><circle cx="215.4" cy="23.8" r="1.6" fill="#f3f4f1" opacity="0.5"/><circle cx="276.9" cy="23.8" r="1.7" fill="#f3f4f1" opacity="0.5"/><circle cx="338.5" cy="23.8" r="1.7" fill="#f3f4f1" opacity="0.5"/><circle cx="400.0" cy="23.8" r="1.7" fill="#f3f4f1" opacity="0.5"/><circle cx="461.5" cy="23.8" r="1.8" fill="#f3f4f1" opacity="0.5"/><circle cx="523.1" cy="23.8" r="1.8" fill="#f3f4f1" opacity="0.5"/><circle cx="584.6" cy="23.8" r="1.9" fill="#f3f4f1" opacity="0.5"/><circle cx="646.2" cy="23.8" r="1.9" fill="#f3f4f1" opacity="0.5"/><circle cx="707.7" cy="23.8" r="2.0" fill="#f3f4f1" opacity="0.5"/><circle cx="769.2" cy="23.8" r="2.1" fill="#f3f4f1" opacity="0.5"/><circle cx="830.8" cy="23.8" r="2.2" fill="#f3f4f1" opacity="0.5"/><circle cx="892.3" cy="23.8" r="2.3" fill="#f3f4f1" opacity="0.5"/><circle cx="953.8" cy="23.8" r="2.3" fill="#f3f4f1" opacity="0.5"/><circle cx="1015.4" cy="23.8" r="2.5" fill="#f3f4f1" opacity="0.5"/><circle cx="1076.9" cy="23.8" r="2.6" fill="#f3f4f1" opacity="0.5"/><circle cx="1138.5" cy="23.8" r="2.7" fill="#f3f4f1" opacity="0.5"/><circle cx="1200.0" cy="23.8" r="2.8" fill="#f3f4f1" opacity="0.5"/><circle cx="1261.5" cy="23.8" r="2.9" fill="#f3f4f1" opacity="0.5"/><circle cx="1323.1" cy="23.8" r="3.1" fill="#f3f4f1" opacity="0.5"/><circle cx="1384.6" cy="23.8" r="3.2" fill="#f3f4f1" opacity="0.5"/><circle cx="1446.2" cy="23.8" r="3.4" fill="#f3f4f1" opacity="0.5"/><circle cx="1507.7" cy="23.8" r="3.5" fill="#f3f4f1" opacity="0.5"/><circle cx="1569.2" cy="23.8" r="3.7" fill="#f3f4f1" opacity="0.5"/><circle cx="30.8" cy="71.2" r="1.6" fill="#f3f4f1" opacity="0.5"/><circle cx="92.3" cy="71.2" r="1.6" fill="#f3f4f1" opacity="0.5"/><circle cx="153.8" cy="71.2" r="1.6" fill="#f3f4f1" opacity="0.5"/><circle cx="215.4" cy="71.2" r="1.7" fill="#f3f4f1" opacity="0.5"/><circle cx="276.9" cy="71.2" r="1.7" fill="#f3f4f1" opacity="0.5"/><circle cx="338.5" cy="71.2" r="1.7" fill="#f3f4f1" opacity="0.5"/><circle cx="400.0" cy="71.2" r="1.8" fill="#f3f4f1" opacity="0.5"/><circle cx="461.5" cy="71.2" r="1.8" fill="#f3f4f1" opacity="0.5"/><circle cx="523.1" cy="71.2" r="1.9" fill="#f3f4f1" opacity="0.5"/><circle cx="584.6" cy="71.2" r="2.0" fill="#f3f4f1" opacity="0.5"/><circle cx="646.2" cy="71.2" r="2.0" fill="#f3f4f1" opacity="0.5"/><circle cx="707.7" cy="71.2" r="2.1" fill="#f3f4f1" opacity="0.5"/><circle cx="769.2" cy="71.2" r="2.2" fill="#f3f4f1" opacity="0.5"/><circle cx="830.8" cy="71.2" r="2.3" fill="#f3f4f1" opacity="0.5"/><circle cx="892.3" cy="71.2" r="2.4" fill="#f3f4f1" opacity="0.5"/><circle cx="953.8" cy="71.2" r="2.5" fill="#f3f4f1" opacity="0.5"/><circle cx="1015.4" cy="71.2" r="2.6" fill="#f3f4f1" opacity="0.5"/><circle cx="1076.9" cy="71.2" r="2.8" fill="#f3f4f1" opacity="0.5"/><circle cx="1138.5" cy="71.2" r="2.9" fill="#f3f4f1" opacity="0.5"/><circle cx="1200.0" cy="71.2" r="3.0" fill="#f3f4f1" opacity="0.5"/><circle cx="1261.5" cy="71.2" r="3.2" fill="#f3f4f1" opacity="0.5"/><circle cx="1323.1" cy="71.2" r="3.3" fill="#f3f4f1" opacity="0.5"/><circle cx="1384.6" cy="71.2" r="3.5" fill="#f3f4f1" opacity="0.5"/><circle cx="1446.2" cy="71.2" r="3.6" fill="#f3f4f1" opacity="0.5"/><circle cx="1507.7" cy="71.2" r="3.8" fill="#f3f4f1" opacity="0.5"/><circle cx="1569.2" cy="71.2" r="4.0" fill="#f3f4f1" opacity="0.5"/><circle cx="30.8" cy="118.8" r="1.6" fill="#f3f4f1" opacity="0.5"/><circle cx="92.3" cy="118.8" r="1.7" fill="#f3f4f1" opacity="0.5"/><circle cx="153.8" cy="118.8" r="1.7" fill="#f3f4f1" opacity="0.5"/><circle cx="215.4" cy="118.8" r="1.7" fill="#f3f4f1" opacity="0.5"/><circle cx="276.9" cy="118.8" r="1.8" fill="#f3f4f1" opacity="0.5"/><circle cx="338.5" cy="118.8" r="1.8" fill="#f3f4f1" opacity="0.5"/><circle cx="400.0" cy="118.8" r="1.9" fill="#f3f4f1" opacity="0.5"/><circle cx="461.5" cy="118.8" r="1.9" fill="#f3f4f1" opacity="0.5"/><circle cx="523.1" cy="118.8" r="2.0" fill="#f3f4f1" opacity="0.5"/><circle cx="584.6" cy="118.8" r="2.1" fill="#f3f4f1" opacity="0.5"/><circle cx="646.2" cy="118.8" r="2.2" fill="#f3f4f1" opacity="0.5"/><circle cx="707.7" cy="118.8" r="2.3" fill="#f3f4f1" opacity="0.5"/><circle cx="769.2" cy="118.8" r="2.4" fill="#f3f4f1" opacity="0.5"/><circle cx="830.8" cy="118.8" r="2.5" fill="#f3f4f1" opacity="0.5"/><circle cx="892.3" cy="118.8" r="2.6" fill="#f3f4f1" opacity="0.5"/><circle cx="953.8" cy="118.8" r="2.7" fill="#f3f4f1" opacity="0.5"/><circle cx="1015.4" cy="118.8" r="2.8" fill="#f3f4f1" opacity="0.5"/><circle cx="1076.9" cy="118.8" r="3.0" fill="#f3f4f1" opacity="0.5"/><circle cx="1138.5" cy="118.8" r="3.1" fill="#f3f4f1" opacity="0.5"/><circle cx="1200.0" cy="118.8" r="3.2" fill="#f3f4f1" opacity="0.5"/><circle cx="1261.5" cy="118.8" r="3.4" fill="#f3f4f1" opacity="0.5"/><circle cx="1323.1" cy="118.8" r="3.6" fill="#f3f4f1" opacity="0.5"/><circle cx="1384.6" cy="118.8" r="3.7" fill="#f3f4f1" opacity="0.5"/><circle cx="1446.2" cy="118.8" r="3.9" fill="#f3f4f1" opacity="0.5"/><circle cx="1507.7" cy="118.8" r="4.1" fill="#f3f4f1" opacity="0.5"/><circle cx="1569.2" cy="118.8" r="4.3" fill="#f3f4f1" opacity="0.5"/><circle cx="30.8" cy="166.2" r="1.7" fill="#f3f4f1" opacity="0.5"/><circle cx="92.3" cy="166.2" r="1.7" fill="#f3f4f1" opacity="0.5"/><circle cx="153.8" cy="166.2" r="1.8" fill="#f3f4f1" opacity="0.5"/><circle cx="215.4" cy="166.2" r="1.8" fill="#f3f4f1" opacity="0.5"/><circle cx="276.9" cy="166.2" r="1.9" fill="#f3f4f1" opacity="0.5"/><circle cx="338.5" cy="166.2" r="1.9" fill="#f3f4f1" opacity="0.5"/><circle cx="400.0" cy="166.2" r="2.0" fill="#f3f4f1" opacity="0.5"/><circle cx="461.5" cy="166.2" r="2.1" fill="#f3f4f1" opacity="0.5"/><circle cx="523.1" cy="166.2" r="2.2" fill="#f3f4f1" opacity="0.5"/><circle cx="584.6" cy="166.2" r="2.2" fill="#f3f4f1" opacity="0.5"/><circle cx="646.2" cy="166.2" r="2.3" fill="#f3f4f1" opacity="0.5"/><circle cx="707.7" cy="166.2" r="2.4" fill="#f3f4f1" opacity="0.5"/><circle cx="769.2" cy="166.2" r="2.5" fill="#f3f4f1" opacity="0.5"/><circle cx="830.8" cy="166.2" r="2.7" fill="#f3f4f1" opacity="0.5"/><circle cx="892.3" cy="166.2" r="2.8" fill="#f3f4f1" opacity="0.5"/><circle cx="953.8" cy="166.2" r="2.9" fill="#f3f4f1" opacity="0.5"/><circle cx="1015.4" cy="166.2" r="3.1" fill="#f3f4f1" opacity="0.5"/><circle cx="1076.9" cy="166.2" r="3.2" fill="#f3f4f1" opacity="0.5"/><circle cx="1138.5" cy="166.2" r="3.3" fill="#f3f4f1" opacity="0.5"/><circle cx="1200.0" cy="166.2" r="3.5" fill="#f3f4f1" opacity="0.5"/><circle cx="1261.5" cy="166.2" r="3.7" fill="#f3f4f1" opacity="0.5"/><circle cx="1323.1" cy="166.2" r="3.8" fill="#f3f4f1" opacity="0.5"/><circle cx="1384.6" cy="166.2" r="4.0" fill="#f3f4f1" opacity="0.5"/><circle cx="1446.2" cy="166.2" r="4.2" fill="#f3f4f1" opacity="0.5"/><circle cx="1507.7" cy="166.2" r="4.4" fill="#f3f4f1" opacity="0.5"/><circle cx="1569.2" cy="166.2" r="4.6" fill="#f3f4f1" opacity="0.5"/><circle cx="30.8" cy="213.8" r="1.7" fill="#f3f4f1" opacity="0.5"/><circle cx="92.3" cy="213.8" r="1.8" fill="#f3f4f1" opacity="0.5"/><circle cx="153.8" cy="213.8" r="1.8" fill="#f3f4f1" opacity="0.5"/><circle cx="215.4" cy="213.8" r="1.9" fill="#f3f4f1" opacity="0.5"/><circle cx="276.9" cy="213.8" r="2.0" fill="#f3f4f1" opacity="0.5"/><circle cx="338.5" cy="213.8" r="2.0" fill="#f3f4f1" opacity="0.5"/><circle cx="400.0" cy="213.8" r="2.1" fill="#f3f4f1" opacity="0.5"/><circle cx="461.5" cy="213.8" r="2.2" fill="#f3f4f1" opacity="0.5"/><circle cx="523.1" cy="213.8" r="2.3" fill="#f3f4f1" opacity="0.5"/><circle cx="584.6" cy="213.8" r="2.4" fill="#f3f4f1" opacity="0.5"/><circle cx="646.2" cy="213.8" r="2.5" fill="#f3f4f1" opacity="0.5"/><circle cx="707.7" cy="213.8" r="2.6" fill="#f3f4f1" opacity="0.5"/><circle cx="769.2" cy="213.8" r="2.7" fill="#f3f4f1" opacity="0.5"/><circle cx="830.8" cy="213.8" r="2.9" fill="#f3f4f1" opacity="0.5"/><circle cx="892.3" cy="213.8" r="3.0" fill="#f3f4f1" opacity="0.5"/><circle cx="953.8" cy="213.8" r="3.1" fill="#f3f4f1" opacity="0.5"/><circle cx="1015.4" cy="213.8" r="3.3" fill="#f3f4f1" opacity="0.5"/><circle cx="1076.9" cy="213.8" r="3.4" fill="#f3f4f1" opacity="0.5"/><circle cx="1138.5" cy="213.8" r="3.6" fill="#f3f4f1" opacity="0.5"/><circle cx="1200.0" cy="213.8" r="3.8" fill="#f3f4f1" opacity="0.5"/><circle cx="1261.5" cy="213.8" r="3.9" fill="#f3f4f1" opacity="0.5"/><circle cx="1323.1" cy="213.8" r="4.1" fill="#f3f4f1" opacity="0.5"/><circle cx="1384.6" cy="213.8" r="4.3" fill="#f3f4f1" opacity="0.5"/><circle cx="1446.2" cy="213.8" r="4.5" fill="#f3f4f1" opacity="0.5"/><circle cx="1507.7" cy="213.8" r="4.7" fill="#f3f4f1" opacity="0.5"/><circle cx="1569.2" cy="213.8" r="4.9" fill="#f3f4f1" opacity="0.5"/><circle cx="30.8" cy="261.2" r="1.8" fill="#f3f4f1" opacity="0.5"/><circle cx="92.3" cy="261.2" r="1.9" fill="#f3f4f1" opacity="0.5"/><circle cx="153.8" cy="261.2" r="1.9" fill="#f3f4f1" opacity="0.5"/><circle cx="215.4" cy="261.2" r="2.0" fill="#f3f4f1" opacity="0.5"/><circle cx="276.9" cy="261.2" r="2.1" fill="#f3f4f1" opacity="0.5"/><circle cx="338.5" cy="261.2" r="2.2" fill="#f3f4f1" opacity="0.5"/><circle cx="400.0" cy="261.2" r="2.3" fill="#f3f4f1" opacity="0.5"/><circle cx="461.5" cy="261.2" r="2.4" fill="#f3f4f1" opacity="0.5"/><circle cx="523.1" cy="261.2" r="2.5" fill="#f3f4f1" opacity="0.5"/><circle cx="584.6" cy="261.2" r="2.6" fill="#f3f4f1" opacity="0.5"/><circle cx="646.2" cy="261.2" r="2.7" fill="#f3f4f1" opacity="0.5"/><circle cx="707.7" cy="261.2" r="2.8" fill="#f3f4f1" opacity="0.5"/><circle cx="769.2" cy="261.2" r="2.9" fill="#f3f4f1" opacity="0.5"/><circle cx="830.8" cy="261.2" r="3.1" fill="#f3f4f1" opacity="0.5"/><circle cx="892.3" cy="261.2" r="3.2" fill="#f3f4f1" opacity="0.5"/><circle cx="953.8" cy="261.2" r="3.4" fill="#f3f4f1" opacity="0.5"/><circle cx="1015.4" cy="261.2" r="3.5" fill="#f3f4f1" opacity="0.5"/><circle cx="1076.9" cy="261.2" r="3.7" fill="#f3f4f1" opacity="0.5"/><circle cx="1138.5" cy="261.2" r="3.9" fill="#f3f4f1" opacity="0.5"/><circle cx="1200.0" cy="261.2" r="4.0" fill="#f3f4f1" opacity="0.5"/><circle cx="1261.5" cy="261.2" r="4.2" fill="#f3f4f1" opacity="0.5"/><circle cx="1323.1" cy="261.2" r="4.4" fill="#f3f4f1" opacity="0.5"/><circle cx="1384.6" cy="261.2" r="4.6" fill="#f3f4f1" opacity="0.5"/><circle cx="1446.2" cy="261.2" r="4.8" fill="#f3f4f1" opacity="0.5"/><circle cx="1507.7" cy="261.2" r="5.0" fill="#f3f4f1" opacity="0.5"/><circle cx="1569.2" cy="261.2" r="5.3" fill="#f3f4f1" opacity="0.5"/><circle cx="30.8" cy="308.8" r="1.9" fill="#f3f4f1" opacity="0.5"/><circle cx="92.3" cy="308.8" r="2.0" fill="#f3f4f1" opacity="0.5"/><circle cx="153.8" cy="308.8" r="2.1" fill="#f3f4f1" opacity="0.5"/><circle cx="215.4" cy="308.8" r="2.1" fill="#f3f4f1" opacity="0.5"/><circle cx="276.9" cy="308.8" r="2.2" fill="#f3f4f1" opacity="0.5"/><circle cx="338.5" cy="308.8" r="2.3" fill="#f3f4f1" opacity="0.5"/><circle cx="400.0" cy="308.8" r="2.4" fill="#f3f4f1" opacity="0.5"/><circle cx="461.5" cy="308.8" r="2.5" fill="#f3f4f1" opacity="0.5"/><circle cx="523.1" cy="308.8" r="2.6" fill="#f3f4f1" opacity="0.5"/><circle cx="584.6" cy="308.8" r="2.8" fill="#f3f4f1" opacity="0.5"/><circle cx="646.2" cy="308.8" r="2.9" fill="#f3f4f1" opacity="0.5"/><circle cx="707.7" cy="308.8" r="3.0" fill="#f3f4f1" opacity="0.5"/><circle cx="769.2" cy="308.8" r="3.2" fill="#f3f4f1" opacity="0.5"/><circle cx="830.8" cy="308.8" r="3.3" fill="#f3f4f1" opacity="0.5"/><circle cx="892.3" cy="308.8" r="3.5" fill="#f3f4f1" opacity="0.5"/><circle cx="953.8" cy="308.8" r="3.6" fill="#f3f4f1" opacity="0.5"/><circle cx="1015.4" cy="308.8" r="3.8" fill="#f3f4f1" opacity="0.5"/><circle cx="1076.9" cy="308.8" r="4.0" fill="#f3f4f1" opacity="0.5"/><circle cx="1138.5" cy="308.8" r="4.2" fill="#f3f4f1" opacity="0.5"/><circle cx="1200.0" cy="308.8" r="4.4" fill="#f3f4f1" opacity="0.5"/><circle cx="1261.5" cy="308.8" r="4.5" fill="#f3f4f1" opacity="0.5"/><circle cx="1323.1" cy="308.8" r="4.7" fill="#f3f4f1" opacity="0.5"/><circle cx="1384.6" cy="308.8" r="5.0" fill="#f3f4f1" opacity="0.5"/><circle cx="1446.2" cy="308.8" r="5.2" fill="#f3f4f1" opacity="0.5"/><circle cx="1507.7" cy="308.8" r="5.4" fill="#f3f4f1" opacity="0.5"/><circle cx="1569.2" cy="308.8" r="5.6" fill="#f3f4f1" opacity="0.5"/><circle cx="30.8" cy="356.2" r="2.0" fill="#f3f4f1" opacity="0.5"/><circle cx="92.3" cy="356.2" r="2.1" fill="#f3f4f1" opacity="0.5"/><circle cx="153.8" cy="356.2" r="2.2" fill="#f3f4f1" opacity="0.5"/><circle cx="215.4" cy="356.2" r="2.3" fill="#f3f4f1" opacity="0.5"/><circle cx="276.9" cy="356.2" r="2.4" fill="#f3f4f1" opacity="0.5"/><circle cx="338.5" cy="356.2" r="2.5" fill="#f3f4f1" opacity="0.5"/><circle cx="400.0" cy="356.2" r="2.6" fill="#f3f4f1" opacity="0.5"/><circle cx="461.5" cy="356.2" r="2.7" fill="#f3f4f1" opacity="0.5"/><circle cx="523.1" cy="356.2" r="2.8" fill="#f3f4f1" opacity="0.5"/><circle cx="584.6" cy="356.2" r="3.0" fill="#f3f4f1" opacity="0.5"/><circle cx="646.2" cy="356.2" r="3.1" fill="#f3f4f1" opacity="0.5"/><circle cx="707.7" cy="356.2" r="3.3" fill="#f3f4f1" opacity="0.5"/><circle cx="769.2" cy="356.2" r="3.4" fill="#f3f4f1" opacity="0.5"/><circle cx="830.8" cy="356.2" r="3.6" fill="#f3f4f1" opacity="0.5"/><circle cx="892.3" cy="356.2" r="3.7" fill="#f3f4f1" opacity="0.5"/><circle cx="953.8" cy="356.2" r="3.9" fill="#f3f4f1" opacity="0.5"/><circle cx="1015.4" cy="356.2" r="4.1" fill="#f3f4f1" opacity="0.5"/><circle cx="1076.9" cy="356.2" r="4.3" fill="#f3f4f1" opacity="0.5"/><circle cx="1138.5" cy="356.2" r="4.5" fill="#f3f4f1" opacity="0.5"/><circle cx="1200.0" cy="356.2" r="4.7" fill="#f3f4f1" opacity="0.5"/><circle cx="1261.5" cy="356.2" r="4.9" fill="#f3f4f1" opacity="0.5"/><circle cx="1323.1" cy="356.2" r="5.1" fill="#f3f4f1" opacity="0.5"/><circle cx="1384.6" cy="356.2" r="5.3" fill="#f3f4f1" opacity="0.5"/><circle cx="1446.2" cy="356.2" r="5.5" fill="#f3f4f1" opacity="0.5"/><circle cx="1507.7" cy="356.2" r="5.8" fill="#f3f4f1" opacity="0.5"/><circle cx="1569.2" cy="356.2" r="6.0" fill="#f3f4f1" opacity="0.5"/><circle cx="30.8" cy="403.8" r="2.2" fill="#f3f4f1" opacity="0.5"/><circle cx="92.3" cy="403.8" r="2.3" fill="#f3f4f1" opacity="0.5"/><circle cx="153.8" cy="403.8" r="2.3" fill="#f3f4f1" opacity="0.5"/><circle cx="215.4" cy="403.8" r="2.5" fill="#f3f4f1" opacity="0.5"/><circle cx="276.9" cy="403.8" r="2.6" fill="#f3f4f1" opacity="0.5"/><circle cx="338.5" cy="403.8" r="2.7" fill="#f3f4f1" opacity="0.5"/><circle cx="400.0" cy="403.8" r="2.8" fill="#f3f4f1" opacity="0.5"/><circle cx="461.5" cy="403.8" r="2.9" fill="#f3f4f1" opacity="0.5"/><circle cx="523.1" cy="403.8" r="3.1" fill="#f3f4f1" opacity="0.5"/><circle cx="584.6" cy="403.8" r="3.2" fill="#f3f4f1" opacity="0.5"/><circle cx="646.2" cy="403.8" r="3.4" fill="#f3f4f1" opacity="0.5"/><circle cx="707.7" cy="403.8" r="3.5" fill="#f3f4f1" opacity="0.5"/><circle cx="769.2" cy="403.8" r="3.7" fill="#f3f4f1" opacity="0.5"/><circle cx="830.8" cy="403.8" r="3.9" fill="#f3f4f1" opacity="0.5"/><circle cx="892.3" cy="403.8" r="4.0" fill="#f3f4f1" opacity="0.5"/><circle cx="953.8" cy="403.8" r="4.2" fill="#f3f4f1" opacity="0.5"/><circle cx="1015.4" cy="403.8" r="4.4" fill="#f3f4f1" opacity="0.5"/><circle cx="1076.9" cy="403.8" r="4.6" fill="#f3f4f1" opacity="0.5"/><circle cx="1138.5" cy="403.8" r="4.8" fill="#f3f4f1" opacity="0.5"/><circle cx="1200.0" cy="403.8" r="5.0" fill="#f3f4f1" opacity="0.5"/><circle cx="1261.5" cy="403.8" r="5.2" fill="#f3f4f1" opacity="0.5"/><circle cx="1323.1" cy="403.8" r="5.4" fill="#f3f4f1" opacity="0.5"/><circle cx="1384.6" cy="403.8" r="5.7" fill="#f3f4f1" opacity="0.5"/><circle cx="1446.2" cy="403.8" r="5.9" fill="#f3f4f1" opacity="0.5"/><circle cx="1507.7" cy="403.8" r="6.2" fill="#f3f4f1" opacity="0.5"/><circle cx="1569.2" cy="403.8" r="6.4" fill="#f3f4f1" opacity="0.5"/><circle cx="30.8" cy="451.2" r="2.3" fill="#f3f4f1" opacity="0.5"/><circle cx="92.3" cy="451.2" r="2.4" fill="#f3f4f1" opacity="0.5"/><circle cx="153.8" cy="451.2" r="2.5" fill="#f3f4f1" opacity="0.5"/><circle cx="215.4" cy="451.2" r="2.6" fill="#f3f4f1" opacity="0.5"/><circle cx="276.9" cy="451.2" r="2.8" fill="#f3f4f1" opacity="0.5"/><circle cx="338.5" cy="451.2" r="2.9" fill="#f3f4f1" opacity="0.5"/><circle cx="400.0" cy="451.2" r="3.0" fill="#f3f4f1" opacity="0.5"/><circle cx="461.5" cy="451.2" r="3.2" fill="#f3f4f1" opacity="0.5"/><circle cx="523.1" cy="451.2" r="3.3" fill="#f3f4f1" opacity="0.5"/><circle cx="584.6" cy="451.2" r="3.5" fill="#f3f4f1" opacity="0.5"/><circle cx="646.2" cy="451.2" r="3.6" fill="#f3f4f1" opacity="0.5"/><circle cx="707.7" cy="451.2" r="3.8" fill="#f3f4f1" opacity="0.5"/><circle cx="769.2" cy="451.2" r="4.0" fill="#f3f4f1" opacity="0.5"/><circle cx="830.8" cy="451.2" r="4.1" fill="#f3f4f1" opacity="0.5"/><circle cx="892.3" cy="451.2" r="4.3" fill="#f3f4f1" opacity="0.5"/><circle cx="953.8" cy="451.2" r="4.5" fill="#f3f4f1" opacity="0.5"/><circle cx="1015.4" cy="451.2" r="4.7" fill="#f3f4f1" opacity="0.5"/><circle cx="1076.9" cy="451.2" r="4.9" fill="#f3f4f1" opacity="0.5"/><circle cx="1138.5" cy="451.2" r="5.1" fill="#f3f4f1" opacity="0.5"/><circle cx="1200.0" cy="451.2" r="5.4" fill="#f3f4f1" opacity="0.5"/><circle cx="1261.5" cy="451.2" r="5.6" fill="#f3f4f1" opacity="0.5"/><circle cx="1323.1" cy="451.2" r="5.8" fill="#f3f4f1" opacity="0.5"/><circle cx="1384.6" cy="451.2" r="6.1" fill="#f3f4f1" opacity="0.5"/><circle cx="1446.2" cy="451.2" r="6.3" fill="#f3f4f1" opacity="0.5"/><circle cx="1507.7" cy="451.2" r="6.6" fill="#f3f4f1" opacity="0.5"/><circle cx="1569.2" cy="451.2" r="6.8" fill="#f3f4f1" opacity="0.5"/><circle cx="30.8" cy="498.8" r="2.5" fill="#f3f4f1" opacity="0.5"/><circle cx="92.3" cy="498.8" r="2.6" fill="#f3f4f1" opacity="0.5"/><circle cx="153.8" cy="498.8" r="2.7" fill="#f3f4f1" opacity="0.5"/><circle cx="215.4" cy="498.8" r="2.8" fill="#f3f4f1" opacity="0.5"/><circle cx="276.9" cy="498.8" r="3.0" fill="#f3f4f1" opacity="0.5"/><circle cx="338.5" cy="498.8" r="3.1" fill="#f3f4f1" opacity="0.5"/><circle cx="400.0" cy="498.8" r="3.2" fill="#f3f4f1" opacity="0.5"/><circle cx="461.5" cy="498.8" r="3.4" fill="#f3f4f1" opacity="0.5"/><circle cx="523.1" cy="498.8" r="3.6" fill="#f3f4f1" opacity="0.5"/><circle cx="584.6" cy="498.8" r="3.7" fill="#f3f4f1" opacity="0.5"/><circle cx="646.2" cy="498.8" r="3.9" fill="#f3f4f1" opacity="0.5"/><circle cx="707.7" cy="498.8" r="4.1" fill="#f3f4f1" opacity="0.5"/><circle cx="769.2" cy="498.8" r="4.3" fill="#f3f4f1" opacity="0.5"/><circle cx="830.8" cy="498.8" r="4.4" fill="#f3f4f1" opacity="0.5"/><circle cx="892.3" cy="498.8" r="4.6" fill="#f3f4f1" opacity="0.5"/><circle cx="953.8" cy="498.8" r="4.9" fill="#f3f4f1" opacity="0.5"/><circle cx="1015.4" cy="498.8" r="5.1" fill="#f3f4f1" opacity="0.5"/><circle cx="1076.9" cy="498.8" r="5.3" fill="#f3f4f1" opacity="0.5"/><circle cx="1138.5" cy="498.8" r="5.5" fill="#f3f4f1" opacity="0.5"/><circle cx="1200.0" cy="498.8" r="5.7" fill="#f3f4f1" opacity="0.5"/><circle cx="1261.5" cy="498.8" r="6.0" fill="#f3f4f1" opacity="0.5"/><circle cx="1323.1" cy="498.8" r="6.2" fill="#f3f4f1" opacity="0.5"/><circle cx="1384.6" cy="498.8" r="6.5" fill="#f3f4f1" opacity="0.5"/><circle cx="1446.2" cy="498.8" r="6.7" fill="#f3f4f1" opacity="0.5"/><circle cx="1507.7" cy="498.8" r="7.0" fill="#f3f4f1" opacity="0.5"/><circle cx="1569.2" cy="498.8" r="7.3" fill="#f3f4f1" opacity="0.5"/><circle cx="30.8" cy="546.2" r="2.7" fill="#f3f4f1" opacity="0.5"/><circle cx="92.3" cy="546.2" r="2.8" fill="#f3f4f1" opacity="0.5"/><circle cx="153.8" cy="546.2" r="2.9" fill="#f3f4f1" opacity="0.5"/><circle cx="215.4" cy="546.2" r="3.1" fill="#f3f4f1" opacity="0.5"/><circle cx="276.9" cy="546.2" r="3.2" fill="#f3f4f1" opacity="0.5"/><circle cx="338.5" cy="546.2" r="3.3" fill="#f3f4f1" opacity="0.5"/><circle cx="400.0" cy="546.2" r="3.5" fill="#f3f4f1" opacity="0.5"/><circle cx="461.5" cy="546.2" r="3.7" fill="#f3f4f1" opacity="0.5"/><circle cx="523.1" cy="546.2" r="3.8" fill="#f3f4f1" opacity="0.5"/><circle cx="584.6" cy="546.2" r="4.0" fill="#f3f4f1" opacity="0.5"/><circle cx="646.2" cy="546.2" r="4.2" fill="#f3f4f1" opacity="0.5"/><circle cx="707.7" cy="546.2" r="4.4" fill="#f3f4f1" opacity="0.5"/><circle cx="769.2" cy="546.2" r="4.6" fill="#f3f4f1" opacity="0.5"/><circle cx="830.8" cy="546.2" r="4.8" fill="#f3f4f1" opacity="0.5"/><circle cx="892.3" cy="546.2" r="5.0" fill="#f3f4f1" opacity="0.5"/><circle cx="953.8" cy="546.2" r="5.2" fill="#f3f4f1" opacity="0.5"/><circle cx="1015.4" cy="546.2" r="5.4" fill="#f3f4f1" opacity="0.5"/><circle cx="1076.9" cy="546.2" r="5.6" fill="#f3f4f1" opacity="0.5"/><circle cx="1138.5" cy="546.2" r="5.9" fill="#f3f4f1" opacity="0.5"/><circle cx="1200.0" cy="546.2" r="6.1" fill="#f3f4f1" opacity="0.5"/><circle cx="1261.5" cy="546.2" r="6.4" fill="#f3f4f1" opacity="0.5"/><circle cx="1323.1" cy="546.2" r="6.6" fill="#f3f4f1" opacity="0.5"/><circle cx="1384.6" cy="546.2" r="6.9" fill="#f3f4f1" opacity="0.5"/><circle cx="1446.2" cy="546.2" r="7.2" fill="#f3f4f1" opacity="0.5"/><circle cx="1507.7" cy="546.2" r="7.4" fill="#f3f4f1" opacity="0.5"/><circle cx="1569.2" cy="546.2" r="7.7" fill="#f3f4f1" opacity="0.5"/><circle cx="30.8" cy="593.8" r="2.9" fill="#f3f4f1" opacity="0.5"/><circle cx="92.3" cy="593.8" r="3.0" fill="#f3f4f1" opacity="0.5"/><circle cx="153.8" cy="593.8" r="3.1" fill="#f3f4f1" opacity="0.5"/><circle cx="215.4" cy="593.8" r="3.3" fill="#f3f4f1" opacity="0.5"/><circle cx="276.9" cy="593.8" r="3.4" fill="#f3f4f1" opacity="0.5"/><circle cx="338.5" cy="593.8" r="3.6" fill="#f3f4f1" opacity="0.5"/><circle cx="400.0" cy="593.8" r="3.8" fill="#f3f4f1" opacity="0.5"/><circle cx="461.5" cy="593.8" r="3.9" fill="#f3f4f1" opacity="0.5"/><circle cx="523.1" cy="593.8" r="4.1" fill="#f3f4f1" opacity="0.5"/><circle cx="584.6" cy="593.8" r="4.3" fill="#f3f4f1" opacity="0.5"/><circle cx="646.2" cy="593.8" r="4.5" fill="#f3f4f1" opacity="0.5"/><circle cx="707.7" cy="593.8" r="4.7" fill="#f3f4f1" opacity="0.5"/><circle cx="769.2" cy="593.8" r="4.9" fill="#f3f4f1" opacity="0.5"/><circle cx="830.8" cy="593.8" r="5.1" fill="#f3f4f1" opacity="0.5"/><circle cx="892.3" cy="593.8" r="5.3" fill="#f3f4f1" opacity="0.5"/><circle cx="953.8" cy="593.8" r="5.6" fill="#f3f4f1" opacity="0.5"/><circle cx="1015.4" cy="593.8" r="5.8" fill="#f3f4f1" opacity="0.5"/><circle cx="1076.9" cy="593.8" r="6.0" fill="#f3f4f1" opacity="0.5"/><circle cx="1138.5" cy="593.8" r="6.3" fill="#f3f4f1" opacity="0.5"/><circle cx="1200.0" cy="593.8" r="6.5" fill="#f3f4f1" opacity="0.5"/><circle cx="1261.5" cy="593.8" r="6.8" fill="#f3f4f1" opacity="0.5"/><circle cx="1323.1" cy="593.8" r="7.1" fill="#f3f4f1" opacity="0.5"/><circle cx="1384.6" cy="593.8" r="7.3" fill="#f3f4f1" opacity="0.5"/><circle cx="1446.2" cy="593.8" r="7.6" fill="#f3f4f1" opacity="0.5"/><circle cx="1507.7" cy="593.8" r="7.9" fill="#f3f4f1" opacity="0.5"/><circle cx="1569.2" cy="593.8" r="8.2" fill="#f3f4f1" opacity="0.5"/><circle cx="30.8" cy="641.2" r="3.1" fill="#f3f4f1" opacity="0.5"/><circle cx="92.3" cy="641.2" r="3.2" fill="#f3f4f1" opacity="0.5"/><circle cx="153.8" cy="641.2" r="3.4" fill="#f3f4f1" opacity="0.5"/><circle cx="215.4" cy="641.2" r="3.5" fill="#f3f4f1" opacity="0.5"/><circle cx="276.9" cy="641.2" r="3.7" fill="#f3f4f1" opacity="0.5"/><circle cx="338.5" cy="641.2" r="3.9" fill="#f3f4f1" opacity="0.5"/><circle cx="400.0" cy="641.2" r="4.0" fill="#f3f4f1" opacity="0.5"/><circle cx="461.5" cy="641.2" r="4.2" fill="#f3f4f1" opacity="0.5"/><circle cx="523.1" cy="641.2" r="4.4" fill="#f3f4f1" opacity="0.5"/><circle cx="584.6" cy="641.2" r="4.6" fill="#f3f4f1" opacity="0.5"/><circle cx="646.2" cy="641.2" r="4.8" fill="#f3f4f1" opacity="0.5"/><circle cx="707.7" cy="641.2" r="5.0" fill="#f3f4f1" opacity="0.5"/><circle cx="769.2" cy="641.2" r="5.3" fill="#f3f4f1" opacity="0.5"/><circle cx="830.8" cy="641.2" r="5.5" fill="#f3f4f1" opacity="0.5"/><circle cx="892.3" cy="641.2" r="5.7" fill="#f3f4f1" opacity="0.5"/><circle cx="953.8" cy="641.2" r="5.9" fill="#f3f4f1" opacity="0.5"/><circle cx="1015.4" cy="641.2" r="6.2" fill="#f3f4f1" opacity="0.5"/><circle cx="1076.9" cy="641.2" r="6.4" fill="#f3f4f1" opacity="0.5"/><circle cx="1138.5" cy="641.2" r="6.7" fill="#f3f4f1" opacity="0.5"/><circle cx="1200.0" cy="641.2" r="7.0" fill="#f3f4f1" opacity="0.5"/><circle cx="1261.5" cy="641.2" r="7.2" fill="#f3f4f1" opacity="0.5"/><circle cx="1323.1" cy="641.2" r="7.5" fill="#f3f4f1" opacity="0.5"/><circle cx="1384.6" cy="641.2" r="7.8" fill="#f3f4f1" opacity="0.5"/><circle cx="1446.2" cy="641.2" r="8.1" fill="#f3f4f1" opacity="0.5"/><circle cx="1507.7" cy="641.2" r="8.4" fill="#f3f4f1" opacity="0.5"/><circle cx="1569.2" cy="641.2" r="8.7" fill="#f3f4f1" opacity="0.5"/><circle cx="30.8" cy="688.8" r="3.3" fill="#f3f4f1" opacity="0.5"/><circle cx="92.3" cy="688.8" r="3.5" fill="#f3f4f1" opacity="0.5"/><circle cx="153.8" cy="688.8" r="3.6" fill="#f3f4f1" opacity="0.5"/><circle cx="215.4" cy="688.8" r="3.8" fill="#f3f4f1" opacity="0.5"/><circle cx="276.9" cy="688.8" r="4.0" fill="#f3f4f1" opacity="0.5"/><circle cx="338.5" cy="688.8" r="4.2" fill="#f3f4f1" opacity="0.5"/><circle cx="400.0" cy="688.8" r="4.4" fill="#f3f4f1" opacity="0.5"/><circle cx="461.5" cy="688.8" r="4.5" fill="#f3f4f1" opacity="0.5"/><circle cx="523.1" cy="688.8" r="4.7" fill="#f3f4f1" opacity="0.5"/><circle cx="584.6" cy="688.8" r="5.0" fill="#f3f4f1" opacity="0.5"/><circle cx="646.2" cy="688.8" r="5.2" fill="#f3f4f1" opacity="0.5"/><circle cx="707.7" cy="688.8" r="5.4" fill="#f3f4f1" opacity="0.5"/><circle cx="769.2" cy="688.8" r="5.6" fill="#f3f4f1" opacity="0.5"/><circle cx="830.8" cy="688.8" r="5.9" fill="#f3f4f1" opacity="0.5"/><circle cx="892.3" cy="688.8" r="6.1" fill="#f3f4f1" opacity="0.5"/><circle cx="953.8" cy="688.8" r="6.3" fill="#f3f4f1" opacity="0.5"/><circle cx="1015.4" cy="688.8" r="6.6" fill="#f3f4f1" opacity="0.5"/><circle cx="1076.9" cy="688.8" r="6.9" fill="#f3f4f1" opacity="0.5"/><circle cx="1138.5" cy="688.8" r="7.1" fill="#f3f4f1" opacity="0.5"/><circle cx="1200.0" cy="688.8" r="7.4" fill="#f3f4f1" opacity="0.5"/><circle cx="1261.5" cy="688.8" r="7.7" fill="#f3f4f1" opacity="0.5"/><circle cx="1323.1" cy="688.8" r="8.0" fill="#f3f4f1" opacity="0.5"/><circle cx="1384.6" cy="688.8" r="8.3" fill="#f3f4f1" opacity="0.5"/><circle cx="1446.2" cy="688.8" r="8.6" fill="#f3f4f1" opacity="0.5"/><circle cx="1507.7" cy="688.8" r="8.9" fill="#f3f4f1" opacity="0.5"/><circle cx="1569.2" cy="688.8" r="9.2" fill="#f3f4f1" opacity="0.5"/><circle cx="30.8" cy="736.2" r="3.6" fill="#f3f4f1" opacity="0.5"/><circle cx="92.3" cy="736.2" r="3.7" fill="#f3f4f1" opacity="0.5"/><circle cx="153.8" cy="736.2" r="3.9" fill="#f3f4f1" opacity="0.5"/><circle cx="215.4" cy="736.2" r="4.1" fill="#f3f4f1" opacity="0.5"/><circle cx="276.9" cy="736.2" r="4.3" fill="#f3f4f1" opacity="0.5"/><circle cx="338.5" cy="736.2" r="4.5" fill="#f3f4f1" opacity="0.5"/><circle cx="400.0" cy="736.2" r="4.7" fill="#f3f4f1" opacity="0.5"/><circle cx="461.5" cy="736.2" r="4.9" fill="#f3f4f1" opacity="0.5"/><circle cx="523.1" cy="736.2" r="5.1" fill="#f3f4f1" opacity="0.5"/><circle cx="584.6" cy="736.2" r="5.3" fill="#f3f4f1" opacity="0.5"/><circle cx="646.2" cy="736.2" r="5.5" fill="#f3f4f1" opacity="0.5"/><circle cx="707.7" cy="736.2" r="5.8" fill="#f3f4f1" opacity="0.5"/><circle cx="769.2" cy="736.2" r="6.0" fill="#f3f4f1" opacity="0.5"/><circle cx="830.8" cy="736.2" r="6.2" fill="#f3f4f1" opacity="0.5"/><circle cx="892.3" cy="736.2" r="6.5" fill="#f3f4f1" opacity="0.5"/><circle cx="953.8" cy="736.2" r="6.8" fill="#f3f4f1" opacity="0.5"/><circle cx="1015.4" cy="736.2" r="7.0" fill="#f3f4f1" opacity="0.5"/><circle cx="1076.9" cy="736.2" r="7.3" fill="#f3f4f1" opacity="0.5"/><circle cx="1138.5" cy="736.2" r="7.6" fill="#f3f4f1" opacity="0.5"/><circle cx="1200.0" cy="736.2" r="7.9" fill="#f3f4f1" opacity="0.5"/><circle cx="1261.5" cy="736.2" r="8.2" fill="#f3f4f1" opacity="0.5"/><circle cx="1323.1" cy="736.2" r="8.5" fill="#f3f4f1" opacity="0.5"/><circle cx="1384.6" cy="736.2" r="8.8" fill="#f3f4f1" opacity="0.5"/><circle cx="1446.2" cy="736.2" r="9.1" fill="#f3f4f1" opacity="0.5"/><circle cx="1507.7" cy="736.2" r="9.4" fill="#f3f4f1" opacity="0.5"/><circle cx="1569.2" cy="736.2" r="9.7" fill="#f3f4f1" opacity="0.5"/><path d="M-160 654 L1760 76 L1760 198 L-160 775 Z" fill="#c8f44f"/><circle cx="352" cy="198" r="76" fill="#8fe3c4"/><rect width="1600" height="760" filter="url(#g)" opacity="0.05"/></svg>